<?xml version="1.0" encoding="iso-8859-1" standalone="no"?>
<svg xml:space="preserve" viewBox="0 0 512.0 512.0" style="background: #fcfcfc" width="512.0" height="512.0" xmlns="http://www.w3.org/2000/svg" desc="created with prolincur">
<g id="Page_1">
<polygon  class="stdefault-layer" style="stroke:#040404;fill:#040404;" stroke-width="1.0"  points=" 24.0,45.0 23.0,46.0 19.0,47.0 19.0,47.0
	 14.0,51.0 14.0,51.0 14.0,52.0 14.0,52.0
	 12.0,54.0 12.0,54.0 12.0,55.0 11.0,56.0
	 11.0,58.0 10.0,59.0 10.0,59.0 10.0,62.0
	 10.0,62.0 9.0,63.0 9.0,65.0 10.0,66.0
	 10.0,66.0 10.0,299.0 10.0,299.0 11.0,300.0
	 11.0,301.0 12.0,302.0 12.0,303.0 12.0,303.0
	 16.0,308.0 16.0,308.0 20.0,310.0 20.0,310.0
	 23.0,312.0 23.0,312.0 377.0,312.0 377.0,312.0
	 378.0,311.0 380.0,311.0 381.0,310.0 382.0,310.0
	 382.0,310.0 387.0,306.0 387.0,306.0 387.0,305.0
	 387.0,305.0 389.0,303.0 389.0,303.0 389.0,302.0
	 390.0,301.0 390.0,300.0 391.0,299.0 391.0,299.0
	 391.0,59.0 391.0,59.0 390.0,58.0 390.0,56.0
	 389.0,55.0 389.0,54.0 389.0,54.0 386.0,51.0
	 386.0,51.0 386.0,50.0 385.0,50.0 385.0,50.0
	 382.0,47.0 382.0,47.0 381.0,47.0 380.0,46.0
	 378.0,46.0 377.0,45.0 377.0,45.0 24.0,45.0
	 20.0,47.0 21.0,46.0"/>
<polygon  class="stdefault-layer" style="fill:#fcfcfc;stroke:none;"  points=" 29.0,52.0 30.0,51.0 371.0,51.0 372.0,52.0
	 372.0,52.0 376.0,52.0 376.0,52.0 377.0,53.0
	 378.0,53.0 378.0,53.0 383.0,58.0 383.0,58.0
	 383.0,59.0 384.0,60.0 384.0,60.0 384.0,63.0
	 384.0,63.0 385.0,64.0 385.0,64.0 385.0,292.0
	 385.0,292.0 384.0,293.0 384.0,293.0 384.0,297.0
	 384.0,297.0 383.0,298.0 383.0,299.0 383.0,299.0
	 378.0,304.0 378.0,304.0 377.0,304.0 376.0,305.0
	 376.0,305.0 372.0,305.0 372.0,305.0 371.0,306.0
	 371.0,306.0 29.0,306.0 29.0,306.0 28.0,305.0
	 28.0,305.0 25.0,305.0 25.0,305.0 24.0,304.0
	 23.0,304.0 23.0,304.0 18.0,299.0 18.0,299.0
	 18.0,298.0 17.0,297.0 17.0,297.0 17.0,293.0
	 17.0,293.0 16.0,292.0 16.0,292.0 16.0,65.0
	 16.0,65.0 17.0,64.0 17.0,64.0 17.0,60.0
	 17.0,60.0 18.0,59.0 18.0,58.0 18.0,58.0
	 23.0,53.0 23.0,53.0 24.0,53.0 25.0,52.0
	 25.0,52.0 29.0,52.0 371.0,51.0 30.0,51.0"/>
<polygon  class="stdefault-layer" style="stroke:#040404;fill:#040404;" stroke-width="1.0"  points=" 82.0,194.0 81.0,195.0 77.0,196.0 77.0,196.0
	 73.0,200.0 73.0,200.0 73.0,202.0 72.0,203.0
	 72.0,203.0 72.0,227.0 72.0,227.0 73.0,228.0
	 73.0,228.0 73.0,231.0 73.0,231.0 76.0,234.0
	 76.0,234.0 77.0,234.0 77.0,234.0 80.0,236.0
	 80.0,236.0 82.0,236.0 83.0,237.0 83.0,237.0
	 149.0,237.0 149.0,237.0 150.0,236.0 150.0,236.0
	 155.0,235.0 155.0,235.0 159.0,231.0 159.0,231.0
	 159.0,230.0 160.0,229.0 160.0,229.0 160.0,202.0
	 160.0,202.0 159.0,201.0 159.0,200.0 159.0,200.0
	 157.0,197.0 157.0,197.0 153.0,195.0 153.0,195.0
	 151.0,195.0 150.0,194.0 150.0,194.0 82.0,194.0
	 78.0,196.0 79.0,195.0"/>
<polygon  class="stdefault-layer" style="fill:#fcfcfc;stroke:none;"  points=" 89.0,201.0 90.0,200.0 142.0,200.0 143.0,201.0
	 143.0,201.0 149.0,201.0 149.0,201.0 150.0,202.0
	 151.0,202.0 151.0,202.0 153.0,204.0 153.0,204.0
	 153.0,227.0 153.0,227.0 151.0,229.0 151.0,229.0
	 149.0,229.0 148.0,230.0 148.0,230.0 84.0,230.0
	 84.0,230.0 83.0,229.0 81.0,229.0 81.0,229.0
	 79.0,227.0 79.0,227.0 79.0,204.0 79.0,204.0
	 81.0,202.0 81.0,202.0 83.0,202.0 84.0,201.0
	 84.0,201.0 89.0,201.0 142.0,200.0 90.0,200.0"/>
<polygon  class="stdefault-layer" style="stroke:#040404;fill:#040404;" stroke-width="1.0"  points=" 307.0,104.0 301.0,110.0 301.0,111.0 283.0,130.0
	 283.0,130.0 283.0,131.0 283.0,131.0 265.0,150.0
	 265.0,150.0 265.0,151.0 265.0,151.0 247.0,170.0
	 247.0,170.0 247.0,171.0 247.0,171.0 229.0,190.0
	 229.0,190.0 229.0,191.0 229.0,191.0 211.0,210.0
	 211.0,210.0 211.0,211.0 211.0,211.0 206.0,216.0
	 206.0,216.0 206.0,220.0 206.0,220.0 207.0,221.0
	 209.0,222.0 210.0,221.0 211.0,221.0 211.0,221.0
	 218.0,214.0 218.0,214.0 218.0,213.0 218.0,213.0
	 236.0,194.0 236.0,194.0 236.0,193.0 236.0,193.0
	 254.0,174.0 254.0,174.0 254.0,173.0 254.0,173.0
	 272.0,154.0 272.0,154.0 272.0,153.0 272.0,153.0
	 290.0,134.0 290.0,134.0 290.0,133.0 290.0,133.0
	 300.0,123.0 300.0,123.0 300.0,122.0 300.0,122.0
	 309.0,113.0 309.0,113.0 309.0,112.0 309.0,112.0
	 312.0,109.0 312.0,109.0 312.0,108.0 313.0,107.0
	 312.0,106.0 312.0,105.0 311.0,104.0 311.0,104.0
	 307.0,104.0 301.0,111.0 301.0,110.0"/>
</g>  <!-- id="Page_1" -->
</svg>