{
  "accessors": [
    {
      "bufferView": 2,
      "componentType": 5126,
      "count": 65532,
      "max": [
        10.085003852844238,
        13.597633361816406,
        2.4269442558288574
      ],
      "min": [
        -10.084259033203125,
        -10.072280883789063,
        -2.4244489669799805
      ],
      "type": "VEC3"
    },
    {
      "bufferView": 2,
      "byteOffset": 786384,
      "componentType": 5126,
      "count": 65532,
      "max": [
        0.9999998807907104,
        0.9999096989631653,
        0.999999463558197
      ],
      "min": [
        -0.9999980330467224,
        -0.9999995231628418,
        -0.999998927116394
      ],
      "type": "VEC3"
    },
    {
      "bufferView": 1,
      "componentType": 5126,
      "count": 65532,
      "max": [
        0.0,
        0.0
      ],
      "min": [
        0.0,
        0.0
      ],
      "type": "VEC2"
    },
    {
      "bufferView": 0,
      "componentType": 5125,
      "count": 303255,
      "type": "SCALAR"
    },
    {
      "bufferView": 2,
      "byteOffset": 1572768,
      "componentType": 5126,
      "count": 65532,
      "max": [
        10.084813117980957,
        13.578351020812988,
        1.7950669527053833
      ],
      "min": [
        -10.084063529968262,
        -10.073005676269531,
        -2.4264190196990967
      ],
      "type": "VEC3"
    },
    {
      "bufferView": 2,
      "byteOffset": 2359152,
      "componentType": 5126,
      "count": 65532,
      "max": [
        0.9999738335609436,
        0.9999992847442627,
        0.9999992847442627
      ],
      "min": [
        -0.9999997019767761,
        -0.9989698529243469,
        -0.9999996423721313
      ],
      "type": "VEC3"
    },
    {
      "bufferView": 1,
      "byteOffset": 524256,
      "componentType": 5126,
      "count": 65532,
      "max": [
        0.0,
        0.0
      ],
      "min": [
        0.0,
        0.0
      ],
      "type": "VEC2"
    },
    {
      "bufferView": 0,
      "byteOffset": 1213020,
      "componentType": 5125,
      "count": 323070,
      "type": "SCALAR"
    },
    {
      "bufferView": 2,
      "byteOffset": 3145536,
      "componentType": 5126,
      "count": 65532,
      "max": [
        10.044726371765137,
        13.597726821899414,
        2.427382707595825
      ],
      "min": [
        -10.040809631347656,
        -10.070184707641602,
        -2.4276154041290283
      ],
      "type": "VEC3"
    },
    {
      "bufferView": 2,
      "byteOffset": 3931920,
      "componentType": 5126,
      "count": 65532,
      "max": [
        0.9999995231628418,
        0.9999991059303284,
        1.0
      ],
      "min": [
        -0.9999752640724182,
        -0.9999995231628418,
        -0.9999996423721313
      ],
      "type": "VEC3"
    },
    {
      "bufferView": 1,
      "byteOffset": 1048512,
      "componentType": 5126,
      "count": 65532,
      "max": [
        0.0,
        0.0
      ],
      "min": [
        0.0,
        0.0
      ],
      "type": "VEC2"
    },
    {
      "bufferView": 0,
      "byteOffset": 2505300,
      "componentType": 5125,
      "count": 316416,
      "type": "SCALAR"
    },
    {
      "bufferView": 2,
      "byteOffset": 4718304,
      "componentType": 5126,
      "count": 65532,
      "max": [
        10.039637565612793,
        13.597633361816406,
        2.4231390953063965
      ],
      "min": [
        -10.022103309631348,
        -10.080575942993164,
        -2.42755389213562
      ],
      "type": "VEC3"
    },
    {
      "bufferView": 2,
      "byteOffset": 5504688,
      "componentType": 5126,
      "count": 65532,
      "max": [
        0.999984085559845,
        0.9999096989631653,
        0.9999924898147583
      ],
      "min": [
        -0.9989357590675354,
        -0.9999995231628418,
        -0.9999952912330627
      ],
      "type": "VEC3"
    },
    {
      "bufferView": 1,
      "byteOffset": 1572768,
      "componentType": 5126,
      "count": 65532,
      "max": [
        0.0,
        0.0
      ],
      "min": [
        0.0,
        0.0
      ],
      "type": "VEC2"
    },
    {
      "bufferView": 0,
      "byteOffset": 3770964,
      "componentType": 5125,
      "count": 318081,
      "type": "SCALAR"
    },
    {
      "bufferView": 2,
      "byteOffset": 6291072,
      "componentType": 5126,
      "count": 65532,
      "max": [
        10.048884391784668,
        13.597660064697266,
        2.4270336627960205
      ],
      "min": [
        -10.084259033203125,
        -10.06978702545166,
        -2.426213502883911
      ],
      "type": "VEC3"
    },
    {
      "bufferView": 2,
      "byteOffset": 7077456,
      "componentType": 5126,
      "count": 65532,
      "max": [
        0.9999672174453735,
        0.9999991059303284,
        0.9999986290931702
      ],
      "min": [
        -0.9999997019767761,
        -0.9999995231628418,
        -0.999998927116394
      ],
      "type": "VEC3"
    },
    {
      "bufferView": 1,
      "byteOffset": 2097024,
      "componentType": 5126,
      "count": 65532,
      "max": [
        0.0,
        0.0
      ],
      "min": [
        0.0,
        0.0
      ],
      "type": "VEC2"
    },
    {
      "bufferView": 0,
      "byteOffset": 5043288,
      "componentType": 5125,
      "count": 282261,
      "type": "SCALAR"
    },
    {
      "bufferView": 2,
      "byteOffset": 7863840,
      "componentType": 5126,
      "count": 26896,
      "max": [
        10.080659866333008,
        13.597726821899414,
        2.4263761043548584
      ],
      "min": [
        -10.084063529968262,
        -10.07853889465332,
        -2.42755389213562
      ],
      "type": "VEC3"
    },
    {
      "bufferView": 2,
      "byteOffset": 8186592,
      "componentType": 5126,
      "count": 26896,
      "max": [
        0.9999957084655762,
        0.9999919533729553,
        0.9999996423721313
      ],
      "min": [
        -0.9999964833259583,
        -0.9996094703674316,
        -0.999987781047821
      ],
      "type": "VEC3"
    },
    {
      "bufferView": 1,
      "byteOffset": 2621280,
      "componentType": 5126,
      "count": 26896,
      "max": [
        0.0,
        0.0
      ],
      "min": [
        0.0,
        0.0
      ],
      "type": "VEC2"
    },
    {
      "bufferView": 0,
      "byteOffset": 6172332,
      "componentType": 5125,
      "count": 53181,
      "type": "SCALAR"
    },
    {
      "bufferView": 2,
      "byteOffset": 8509344,
      "componentType": 5126,
      "count": 868,
      "max": [
        2.5,
        13.433462142944336,
        2.5
      ],
      "min": [
        -2.5,
        10.357500076293945,
        -2.5
      ],
      "type": "VEC3"
    },
    {
      "bufferView": 2,
      "byteOffset": 8519760,
      "componentType": 5126,
      "count": 868,
      "max": [
        0.998802661895752,
        1.0,
        0.998802661895752
      ],
      "min": [
        -0.998802661895752,
        -0.7606287598609924,
        -0.998802661895752
      ],
      "type": "VEC3"
    },
    {
      "bufferView": 1,
      "byteOffset": 2836448,
      "componentType": 5126,
      "count": 868,
      "max": [
        1.0625313520431519,
        1.0
      ],
      "min": [
        0.0,
        0.0
      ],
      "type": "VEC2"
    },
    {
      "bufferView": 1,
      "byteOffset": 2843392,
      "componentType": 5126,
      "count": 868,
      "max": [
        1.0625313520431519,
        1.0
      ],
      "min": [
        0.0,
        0.0
      ],
      "type": "VEC2"
    },
    {
      "bufferView": 1,
      "byteOffset": 2850336,
      "componentType": 5126,
      "count": 868,
      "max": [
        1.0625313520431519,
        1.0
      ],
      "min": [
        0.0,
        0.0
      ],
      "type": "VEC2"
    },
    {
      "bufferView": 1,
      "byteOffset": 2857280,
      "componentType": 5126,
      "count": 868,
      "max": [
        1.0625313520431519,
        1.0
      ],
      "min": [
        0.0,
        0.0
      ],
      "type": "VEC2"
    },
    {
      "bufferView": 1,
      "byteOffset": 2864224,
      "componentType": 5126,
      "count": 868,
      "max": [
        1.0625313520431519,
        1.0
      ],
      "min": [
        0.0,
        0.0
      ],
      "type": "VEC2"
    },
    {
      "bufferView": 1,
      "byteOffset": 2871168,
      "componentType": 5126,
      "count": 868,
      "max": [
        1.0625313520431519,
        1.0
      ],
      "min": [
        0.0,
        0.0
      ],
      "type": "VEC2"
    },
    {
      "bufferView": 1,
      "byteOffset": 2878112,
      "componentType": 5126,
      "count": 868,
      "max": [
        1.0625313520431519,
        1.0
      ],
      "min": [
        0.0,
        0.0
      ],
      "type": "VEC2"
    },
    {
      "bufferView": 1,
      "byteOffset": 2885056,
      "componentType": 5126,
      "count": 868,
      "max": [
        1.0625313520431519,
        1.0
      ],
      "min": [
        0.0,
        0.0
      ],
      "type": "VEC2"
    },
    {
      "bufferView": 1,
      "byteOffset": 2892000,
      "componentType": 5126,
      "count": 868,
      "max": [
        1.0625313520431519,
        1.0
      ],
      "min": [
        0.0,
        0.0
      ],
      "type": "VEC2"
    },
    {
      "bufferView": 1,
      "byteOffset": 2898944,
      "componentType": 5126,
      "count": 868,
      "max": [
        1.0625313520431519,
        1.0
      ],
      "min": [
        0.0,
        0.0
      ],
      "type": "VEC2"
    },
    {
      "bufferView": 0,
      "byteOffset": 6385056,
      "componentType": 5125,
      "count": 1296,
      "type": "SCALAR"
    }
  ],
  "asset": {
    "extras": {
      "author": "Busanello (https://sketchfab.com/busanello)",
      "license": "CC-BY-4.0 (http://creativecommons.org/licenses/by/4.0/)",
      "source": "https://sketchfab.com/3d-models/black-diamond-ring-5aa8c861617a431395e44a182d6cfa6b",
      "title": "Black Diamond Ring"
    },
    "generator": "Sketchfab-13.74.0",
    "version": "2.0"
  },
  "bufferViews": [
    {
      "buffer": 0,
      "byteLength": 6390240,
      "name": "floatBufferViews",
      "target": 34963
    },
    {
      "buffer": 0,
      "byteLength": 2905888,
      "byteOffset": 6390240,
      "byteStride": 8,
      "name": "floatBufferViews",
      "target": 34962
    },
    {
      "buffer": 0,
      "byteLength": 8530176,
      "byteOffset": 9296128,
      "byteStride": 12,
      "name": "floatBufferViews",
      "target": 34962
    }
  ],
  "buffers": [
    {
      "byteLength": 17826304,
      "uri": "scene.bin"
    }
  ],
  "images": [
    {
      "uri": "textures/Material_1_baseColor.jpeg"
    }
  ],
  "materials": [
    {
      "doubleSided": true,
      "name": "Material_1",
      "pbrMetallicRoughness": {
        "baseColorTexture": {
          "index": 0
        },
        "roughnessFactor": 0.06894954346527538
      }
    },
    {
      "doubleSided": true,
      "name": "Material_3",
      "pbrMetallicRoughness": {
        "baseColorFactor": [
          0.0,
          0.0,
          0.0,
          1.0
        ],
        "metallicFactor": 0.7055259596981628,
        "roughnessFactor": 0.18475942021918546
      }
    }
  ],
  "meshes": [
    {
      "name": "COLOR=\\u007f\\u007f\\u007f MATERIAL=\\u007f\\u007f\\u007f \\u007f\\u007f\\u007f \\u007f\\u007f\\u007f_Material_1_0",
      "primitives": [
        {
          "attributes": {
            "NORMAL": 1,
            "POSITION": 0,
            "TEXCOORD_0": 2
          },
          "indices": 3,
          "material": 0,
          "mode": 4
        }
      ]
    },
    {
      "name": "COLOR=\\u007f\\u007f\\u007f MATERIAL=\\u007f\\u007f\\u007f \\u007f\\u007f\\u007f \\u007f\\u007f\\u007f_Material_1_0",
      "primitives": [
        {
          "attributes": {
            "NORMAL": 5,
            "POSITION": 4,
            "TEXCOORD_0": 6
          },
          "indices": 7,
          "material": 0,
          "mode": 4
        }
      ]
    },
    {
      "name": "COLOR=\\u007f\\u007f\\u007f MATERIAL=\\u007f\\u007f\\u007f \\u007f\\u007f\\u007f \\u007f\\u007f\\u007f_Material_1_0",
      "primitives": [
        {
          "attributes": {
            "NORMAL": 9,
            "POSITION": 8,
            "TEXCOORD_0": 10
          },
          "indices": 11,
          "material": 0,
          "mode": 4
        }
      ]
    },
    {
      "name": "COLOR=\\u007f\\u007f\\u007f MATERIAL=\\u007f\\u007f\\u007f \\u007f\\u007f\\u007f \\u007f\\u007f\\u007f_Material_1_0",
      "primitives": [
        {
          "attributes": {
            "NORMAL": 13,
            "POSITION": 12,
            "TEXCOORD_0": 14
          },
          "indices": 15,
          "material": 0,
          "mode": 4
        }
      ]
    },
    {
      "name": "COLOR=\\u007f\\u007f\\u007f MATERIAL=\\u007f\\u007f\\u007f \\u007f\\u007f\\u007f \\u007f\\u007f\\u007f_Material_1_0",
      "primitives": [
        {
          "attributes": {
            "NORMAL": 17,
            "POSITION": 16,
            "TEXCOORD_0": 18
          },
          "indices": 19,
          "material": 0,
          "mode": 4
        }
      ]
    },
    {
      "name": "COLOR=\\u007f\\u007f\\u007f MATERIAL=\\u007f\\u007f\\u007f \\u007f\\u007f\\u007f \\u007f\\u007f\\u007f_Material_1_0",
      "primitives": [
        {
          "attributes": {
            "NORMAL": 21,
            "POSITION": 20,
            "TEXCOORD_0": 22
          },
          "indices": 23,
          "material": 0,
          "mode": 4
        }
      ]
    },
    {
      "name": "Object_2_Material_3_0",
      "primitives": [
        {
          "attributes": {
            "NORMAL": 25,
            "POSITION": 24,
            "TEXCOORD_0": 26,
            "TEXCOORD_1": 27,
            "TEXCOORD_2": 28,
            "TEXCOORD_3": 29,
            "TEXCOORD_4": 30,
            "TEXCOORD_5": 31,
            "TEXCOORD_6": 32,
            "TEXCOORD_7": 33,
            "TEXCOORD_8": 34,
            "TEXCOORD_9": 35
          },
          "indices": 36,
          "material": 1,
          "mode": 4
        }
      ]
    }
  ],
  "nodes": [
    {
      "children": [
        1
      ],
      "matrix": [
        1.0,
        0.0,
        0.0,
        0.0,
        0.0,
        2.220446049250313e-16,
        -1.0,
        0.0,
        0.0,
        1.0,
        2.220446049250313e-16,
        0.0,
        0.0,
        0.0,
        0.0,
        1.0
      ],
      "name": "Sketchfab_model"
    },
    {
      "children": [
        2
      ],
      "matrix": [
        0.0010000000474974513,
        0.0,
        0.0,
        0.0,
        0.0,
        0.0,
        0.0010000000474974513,
        0.0,
        0.0,
        -0.0010000000474974513,
        0.0,
        0.0,
        0.0,
        0.0,
        0.0,
        1.0
      ],
      "name": "8b096e3c42b8474aabfe990ca22747df.fbx"
    },
    {
      "children": [
        3,
        11,
        14,
        16,
        18,
        20
      ],
      "name": "RootNode"
    },
    {
      "children": [
        4
      ],
      "name": "obj2"
    },
    {
      "children": [
        5,
        6,
        7,
        8,
        9,
        10
      ],
      "name": "COLOR=\\u007f\\u007f\\u007f MATERIAL=\\u007f\\u007f\\u007f \\u007f\\u007f\\u007f \\u007f\\u007f\\u007f"
    },
    {
      "mesh": 0,
      "name": "COLOR=\\u007f\\u007f\\u007f MATERIAL=\\u007f\\u007f\\u007f \\u007f\\u007f\\u007f \\u007f\\u007f\\u007f_Material_1_0"
    },
    {
      "mesh": 1,
      "name": "COLOR=\\u007f\\u007f\\u007f MATERIAL=\\u007f\\u007f\\u007f \\u007f\\u007f\\u007f \\u007f\\u007f\\u007f_Material_1_0"
    },
    {
      "mesh": 2,
      "name": "COLOR=\\u007f\\u007f\\u007f MATERIAL=\\u007f\\u007f\\u007f \\u007f\\u007f\\u007f \\u007f\\u007f\\u007f_Material_1_0"
    },
    {
      "mesh": 3,
      "name": "COLOR=\\u007f\\u007f\\u007f MATERIAL=\\u007f\\u007f\\u007f \\u007f\\u007f\\u007f \\u007f\\u007f\\u007f_Material_1_0"
    },
    {
      "mesh": 4,
      "name": "COLOR=\\u007f\\u007f\\u007f MATERIAL=\\u007f\\u007f\\u007f \\u007f\\u007f\\u007f \\u007f\\u007f\\u007f_Material_1_0"
    },
    {
      "mesh": 5,
      "name": "COLOR=\\u007f\\u007f\\u007f MATERIAL=\\u007f\\u007f\\u007f \\u007f\\u007f\\u007f \\u007f\\u007f\\u007f_Material_1_0"
    },
    {
      "children": [
        12
      ],
      "name": "Default"
    },
    {
      "children": [
        13
      ],
      "name": "Object_2"
    },
    {
      "mesh": 6,
      "name": "Object_2_Material_3_0"
    },
    {
      "children": [
        15
      ],
      "matrix": [
        0.4612312388557256,
        0.48511855304018237,
        -0.7429170436864485,
        0.0,
        -0.48511855304018225,
        0.8389440327814971,
        0.24664326335117737,
        0.0,
        0.7429170436864485,
        0.2466432633511772,
        0.6222872060742286,
        0.0,
        -34.36558532714844,
        -37.949031829833984,
        62.68534851074219,
        1.0
      ],
      "name": "Perspective"
    },
    {
      "name": "Object_15"
    },
    {
      "children": [
        17
      ],
      "matrix": [
        2.220446049250313e-16,
        0.0,
        -1.0,
        0.0,
        0.0,
        1.0,
        0.0,
        0.0,
        1.0,
        0.0,
        2.220446049250313e-16,
        0.0,
        -5.027432441711426,
        -0.8459686636924744,
        1210.6190185546875,
        1.0
      ],
      "name": "Top"
    },
    {
      "name": "Object_17"
    },
    {
      "children": [
        19
      ],
      "matrix": [
        2.220446049250313e-16,
        1.0,
        0.0,
        0.0,
        -1.0,
        2.220446049250313e-16,
        0.0,
        0.0,
        0.0,
        0.0,
        1.0,
        0.0,
        -5.027432441711426,
        -1856.2855224609375,
        12.815966606140137,
        1.0
      ],
      "name": "Front"
    },
    {
      "name": "Object_19"
    },
    {
      "children": [
        21
      ],
      "matrix": [
        1.0,
        0.0,
        0.0,
        0.0,
        0.0,
        -1.0,
        1.2246467991473532e-16,
        0.0,
        0.0,
        -1.2246467991473532e-16,
        -1.0,
        0.0,
        1201.87060546875,
        -0.8459686636924744,
        12.815966606140137,
        1.0
      ],
      "name": "Right"
    },
    {
      "name": "Object_21"
    }
  ],
  "samplers": [
    {
      "magFilter": 9729,
      "minFilter": 9987,
      "wrapS": 10497,
      "wrapT": 10497
    }
  ],
  "scene": 0,
  "scenes": [
    {
      "name": "Sketchfab_Scene",
      "nodes": [
        0
      ]
    }
  ],
  "textures": [
    {
      "sampler": 0,
      "source": 0
    }
  ]
}
